# xmcd
#
# Track frame offsets: 
#        150
#        20610
#        49159
#        81010
#        119880
#        158962
#        196005
#        245610
#
# Disc length: 3703 seconds
#
# Revision: 1
# Processed by: cddbd v1.5.2PL0 Copyright (c) Steve Scherf et al.
# Submitted via: ExactAudioCopyFreeDBPlugin 1.0
#
DISCID=680e7508
DTITLE=Panopticon - Autumn Eternal
DYEAR=2015
DGENRE=Black Metal
TTITLE0=Tamarack's Gold Returns
TTITLE1=Into The North Woods
TTITLE2=Autumn Eternal
TTITLE3=Oaks Ablaze
TTITLE4=Sleep To The Sound Of Waves Crashing
TTITLE5=A Superior Lament
TTITLE6=Pale Ghosts
TTITLE7=The Wind's Farewell
EXTD=
EXTT0=
EXTT1=
EXTT2=
EXTT3=
EXTT4=
EXTT5=
EXTT6=
EXTT7=
PLAYORDER=
